<svg width="32" height="31" viewBox="0 0 32 31" fill="none" xmlns="http://www.w3.org/2000/svg">
<path opacity="0.5" d="M31.8722 0.471827L24.0722 28.1038C24.0325 28.2293 23.8739 28.2669 23.7813 28.1791L18.5593 23.2246L22.4725 9.37729C22.5122 9.25186 22.3932 9.13897 22.261 9.1766L7.66566 12.8893L2.47004 7.95994C2.37749 7.87214 2.41716 7.72162 2.54936 7.68399L31.6607 0.271141C31.7929 0.246055 31.9119 0.358941 31.8722 0.471827Z" fill="#00B37E"/>
<path opacity="0.5" d="M18.559 23.2244L16.5495 30.3739C16.5099 30.4993 16.3512 30.5369 16.2587 30.4491L0.0504356 15.0841C-0.0421074 14.9963 -0.00244633 14.8458 0.129758 14.8081L7.6654 12.8891L18.559 23.2244Z" fill="#00B37E"/>
<path d="M22.4719 9.37704L18.5586 23.2244L7.66501 12.8891L22.2604 9.17636C22.3926 9.13873 22.5115 9.25161 22.4719 9.37704Z" fill="#00B37E"/>
</svg>
